<?xml version="1.0" encoding="UTF-8" standalone="no"?>
<!-- Generator: Adobe Illustrator 19.0.0, SVG Export Plug-In . SVG Version: 6.00 Build 0)  -->

<svg
   version="1.1"
   id="Layer_1"
   x="0px"
   y="0px"
   viewBox="0 0 511.999 511.999"
   style="enable-background:new 0 0 511.999 511.999;"
   xml:space="preserve"
   sodipodi:docname="like-svgrepo-com.svg"
   inkscape:version="1.1 (c68e22c387, 2021-05-23)"
   xmlns:inkscape="http://www.inkscape.org/namespaces/inkscape"
   xmlns:sodipodi="http://sodipodi.sourceforge.net/DTD/sodipodi-0.dtd"
   xmlns="http://www.w3.org/2000/svg"
   xmlns:svg="http://www.w3.org/2000/svg"><defs
   id="defs47" /><sodipodi:namedview
   id="namedview45"
   pagecolor="#505050"
   bordercolor="#eeeeee"
   borderopacity="1"
   inkscape:pageshadow="0"
   inkscape:pageopacity="0"
   inkscape:pagecheckerboard="0"
   showgrid="false"
   inkscape:zoom="0.22627417"
   inkscape:cx="3354.3378"
   inkscape:cy="1199.8718"
   inkscape:window-width="1920"
   inkscape:window-height="1051"
   inkscape:window-x="-9"
   inkscape:window-y="-9"
   inkscape:window-maximized="1"
   inkscape:current-layer="Layer_1" />

<g
   id="g1071"
   transform="translate(0,6.4388857)"
   inkscape:export-filename="D:\Local_server\htdocs\YouStream v2.0\assets\move-playing-icons\like-light.png"
   inkscape:export-xdpi="96.000046"
   inkscape:export-ydpi="96.000046"><g
     id="g6"
     transform="matrix(1,0,0,0.88782833,1175,286.73014)">
	<g
   id="g4">
		<path
   d="M 83.578,167.256 H 16.716 C 7.524,167.256 0,174.742 0,183.971 v 300.881 c 0,9.225 7.491,16.713 16.716,16.713 h 66.862 c 9.225,0 16.716,-7.489 16.716,-16.713 V 183.971 c 0,-9.229 -7.525,-16.715 -16.716,-16.715 z"
   id="path2" />
	</g>
</g><g
     id="g12"
     transform="translate(1175,256.25)">
	<g
   id="g10">
		<path
   d="m 470.266,167.256 c -2.692,-0.456 -128.739,0 -128.739,0 l 17.606,-48.032 C 371.281,86.05 363.416,35.397 329.709,17.389 318.734,11.525 303.4,8.58 291.037,11.692 c -7.09,1.784 -13.321,6.478 -17.035,12.767 -4.271,7.233 -3.83,15.676 -5.351,23.696 -3.857,20.342 -13.469,39.683 -28.354,54.2 -25.952,25.311 -106.571,98.331 -106.571,98.331 v 267.45 h 278.593 c 37.592,0.022 62.228,-41.958 43.687,-74.749 22.101,-14.155 29.66,-43.97 16.716,-66.862 22.102,-14.155 29.66,-43.97 16.716,-66.862 38.134,-24.423 25.385,-84.871 -19.172,-92.407 z"
   id="path8" />
	</g>
</g></g>
<g
   id="g14">
</g>
<g
   id="g16">
</g>
<g
   id="g18">
</g>
<g
   id="g20">
</g>
<g
   id="g22">
</g>
<g
   id="g24">
</g>
<g
   id="g26">
</g>
<g
   id="g28">
</g>
<g
   id="g30">
</g>
<g
   id="g32">
</g>
<g
   id="g34">
</g>
<g
   id="g36">
</g>
<g
   id="g38">
</g>
<g
   id="g40">
</g>
<g
   id="g42">
</g>
<g
   id="g1079"
   transform="translate(0,6.4388817)"
   inkscape:export-filename="D:\Local_server\htdocs\YouStream v2.0\assets\move-playing-icons\dislike-light.png"
   inkscape:export-xdpi="96.000046"
   inkscape:export-ydpi="96.000046"><g
     id="g868"
     transform="matrix(-1,0,0,-0.88782833,2546.3748,711.98709)">
	<g
   id="g866">
		<path
   d="M 83.578,167.256 H 16.716 C 7.524,167.256 0,174.742 0,183.971 v 300.881 c 0,9.225 7.491,16.713 16.716,16.713 h 66.862 c 9.225,0 16.716,-7.489 16.716,-16.713 V 183.971 c 0,-9.229 -7.525,-16.715 -16.716,-16.715 z"
   id="path864" />
	</g>
</g><g
     id="g874"
     transform="rotate(180,1273.1874,371.23362)">
	<g
   id="g872">
		<path
   d="m 470.266,167.256 c -2.692,-0.456 -128.739,0 -128.739,0 l 17.606,-48.032 C 371.281,86.05 363.416,35.397 329.709,17.389 318.734,11.525 303.4,8.58 291.037,11.692 c -7.09,1.784 -13.321,6.478 -17.035,12.767 -4.271,7.233 -3.83,15.676 -5.351,23.696 -3.857,20.342 -13.469,39.683 -28.354,54.2 -25.952,25.311 -106.571,98.331 -106.571,98.331 v 267.45 h 278.593 c 37.592,0.022 62.228,-41.958 43.687,-74.749 22.101,-14.155 29.66,-43.97 16.716,-66.862 22.102,-14.155 29.66,-43.97 16.716,-66.862 38.134,-24.423 25.385,-84.871 -19.172,-92.407 z"
   id="path870" />
	</g>
</g></g><g
   id="g1087"
   transform="translate(0,-5.2167129)"
   inkscape:export-filename="D:\Local_server\htdocs\YouStream v2.0\assets\move-playing-icons\like-dark.png"
   inkscape:export-xdpi="96.000046"
   inkscape:export-ydpi="96.000046"><g
     id="g880"
     transform="matrix(1,0,0,0.88782833,1175,1067.9801)"
     style="fill:#ffffff">
	<g
   id="g878"
   style="fill:#ffffff">
		<path
   d="M 83.578,167.256 H 16.716 C 7.524,167.256 0,174.742 0,183.971 v 300.881 c 0,9.225 7.491,16.713 16.716,16.713 h 66.862 c 9.225,0 16.716,-7.489 16.716,-16.713 V 183.971 c 0,-9.229 -7.525,-16.715 -16.716,-16.715 z"
   id="path876"
   style="fill:#ffffff" />
	</g>
</g><g
     id="g886"
     transform="translate(1175,1037.5)"
     style="fill:#ffffff">
	<g
   id="g884"
   style="fill:#ffffff">
		<path
   d="m 470.266,167.256 c -2.692,-0.456 -128.739,0 -128.739,0 l 17.606,-48.032 C 371.281,86.05 363.416,35.397 329.709,17.389 318.734,11.525 303.4,8.58 291.037,11.692 c -7.09,1.784 -13.321,6.478 -17.035,12.767 -4.271,7.233 -3.83,15.676 -5.351,23.696 -3.857,20.342 -13.469,39.683 -28.354,54.2 -25.952,25.311 -106.571,98.331 -106.571,98.331 v 267.45 h 278.593 c 37.592,0.022 62.228,-41.958 43.687,-74.749 22.101,-14.155 29.66,-43.97 16.716,-66.862 22.102,-14.155 29.66,-43.97 16.716,-66.862 38.134,-24.423 25.385,-84.871 -19.172,-92.407 z"
   id="path882"
   style="fill:#ffffff" />
	</g>
</g></g><g
   id="g1095"
   transform="translate(0,-5.2167418)"
   inkscape:export-filename="D:\Local_server\htdocs\YouStream v2.0\assets\move-playing-icons\dislike-dark.png"
   inkscape:export-xdpi="96.000046"
   inkscape:export-ydpi="96.000046"><g
     id="g892"
     transform="matrix(-1,0,0,-0.88782833,2546.3748,1493.2371)"
     style="fill:#ffffff">
	<g
   id="g890"
   style="fill:#ffffff">
		<path
   d="M 83.578,167.256 H 16.716 C 7.524,167.256 0,174.742 0,183.971 v 300.881 c 0,9.225 7.491,16.713 16.716,16.713 h 66.862 c 9.225,0 16.716,-7.489 16.716,-16.713 V 183.971 c 0,-9.229 -7.525,-16.715 -16.716,-16.715 z"
   id="path888"
   style="fill:#ffffff" />
	</g>
</g><g
     id="g898"
     transform="rotate(180,1273.1874,761.85862)"
     style="fill:#ffffff">
	<g
   id="g896"
   style="fill:#ffffff">
		<path
   d="m 470.266,167.256 c -2.692,-0.456 -128.739,0 -128.739,0 l 17.606,-48.032 C 371.281,86.05 363.416,35.397 329.709,17.389 318.734,11.525 303.4,8.58 291.037,11.692 c -7.09,1.784 -13.321,6.478 -17.035,12.767 -4.271,7.233 -3.83,15.676 -5.351,23.696 -3.857,20.342 -13.469,39.683 -28.354,54.2 -25.952,25.311 -106.571,98.331 -106.571,98.331 v 267.45 h 278.593 c 37.592,0.022 62.228,-41.958 43.687,-74.749 22.101,-14.155 29.66,-43.97 16.716,-66.862 22.102,-14.155 29.66,-43.97 16.716,-66.862 38.134,-24.423 25.385,-84.871 -19.172,-92.407 z"
   id="path894"
   style="fill:#ffffff" />
	</g>
</g></g><path
   id="rect940"
   style="font-variation-settings:'wght' 700;fill:#ffffff;stroke-width:1.17188;stroke-linecap:round;stroke-linejoin:round;paint-order:stroke fill markers"
   d="m 3108.9609,1041.0169 c -17.2449,0 -31.1289,13.8822 -31.1289,31.127 v 137.33 h -137.33 c -17.2448,0 -31.127,13.884 -31.127,31.1289 v 69.5782 c 0,17.2449 13.8822,31.1289 31.127,31.1289 h 137.33 v 137.33 c 0,17.2448 13.884,31.127 31.1289,31.127 h 69.5782 c 17.2449,0 31.1289,-13.8822 31.1289,-31.127 v -137.33 h 137.33 c 17.2448,0 31.127,-13.884 31.127,-31.1289 v -69.5782 c 0,-17.2449 -13.8822,-31.1289 -31.127,-31.1289 h -137.33 v -137.33 c 0,-17.2448 -13.884,-31.127 -31.1289,-31.127 z"
   inkscape:export-filename="D:\Local_server\htdocs\YouStream v2.0\assets\move-playing-icons\add-dark.png"
   inkscape:export-xdpi="96.000046"
   inkscape:export-ydpi="96.000046" /><path
   id="path1045"
   style="font-variation-settings:'wght' 700;fill:#000000;stroke-width:1.17188;stroke-linecap:round;stroke-linejoin:round;paint-order:stroke fill markers"
   d="m 3108.9609,271.4225 c -17.2449,0 -31.1289,13.8822 -31.1289,31.127 v 137.33 h -137.33 c -17.2448,0 -31.127,13.884 -31.127,31.1289 v 69.5782 c 0,17.2449 13.8822,31.1289 31.127,31.1289 h 137.33 v 137.33 c 0,17.2448 13.884,31.127 31.1289,31.127 h 69.5782 c 17.2449,0 31.1289,-13.8822 31.1289,-31.127 v -137.33 h 137.33 c 17.2448,0 31.127,-13.884 31.127,-31.1289 v -69.5782 c 0,-17.2449 -13.8822,-31.1289 -31.127,-31.1289 h -137.33 v -137.33 c 0,-17.2448 -13.884,-31.127 -31.1289,-31.127 z"
   inkscape:export-filename="D:\Local_server\htdocs\YouStream v2.0\assets\move-playing-icons\add-light.png"
   inkscape:export-xdpi="96.000046"
   inkscape:export-ydpi="96.000046" /><g
   id="g1193"
   transform="matrix(1.4318461,0,0,1.4318461,558.86498,709.54504)"
   inkscape:export-filename="D:\Local_server\htdocs\YouStream v2.0\assets\move-playing-icons\reply-light.png"
   inkscape:export-xdpi="96.000046"
   inkscape:export-ydpi="96.000046"><path
     id="rect887"
     style="font-variation-settings:'wght' 700;stroke-linecap:round;stroke-linejoin:round;paint-order:stroke fill markers"
     d="m 2335.9375,-305.98438 c -14.7156,0 -26.5625,11.84688 -26.5625,26.5625 v 73.92774 c -2.7139,65.35825 -13.7929,224.009765 -57.6816,224.009765 h 79.248 c 1.6205,0.306647 3.2838,0.5 4.9961,0.5 h 490.625 c 14.7156,0 26.5625,-11.846875 26.5625,-26.5625 V -279.42188 c 0,-14.71562 -11.8469,-26.5625 -26.5625,-26.5625 z" /><rect
     style="font-variation-settings:'wght' 700;fill:#ffffff;stroke-linecap:round;stroke-linejoin:round;paint-order:stroke fill markers"
     id="rect1081"
     width="332.56116"
     height="49.718445"
     x="2453.8816"
     y="-241.9631"
     ry="24.859222" /><rect
     style="font-variation-settings:'wght' 700;fill:#ffffff;stroke-linecap:round;stroke-linejoin:round;paint-order:stroke fill markers"
     id="rect1165"
     width="332.56116"
     height="49.718445"
     x="2453.8816"
     y="-171.52864"
     ry="24.859222" /><rect
     style="font-variation-settings:'wght' 700;fill:#ffffff;stroke-width:0.877932;stroke-linecap:round;stroke-linejoin:round;paint-order:stroke fill markers"
     id="rect1167"
     width="256.3262"
     height="49.718445"
     x="2453.8816"
     y="-101.09418"
     ry="24.859222" /></g><path
   id="path1195"
   style="font-variation-settings:'wght' 700;stroke-width:1.44231;stroke-linecap:round;stroke-linejoin:round;paint-order:stroke fill markers;fill:#ffffff"
   d="m 3904.4494,1053.6594 c -21.2244,0 -38.3113,17.0868 -38.3113,38.3113 v 106.6265 c -3.9143,94.2667 -19.8936,323.091 -83.1946,323.091 h 114.3 c 2.3372,0.4423 4.7362,0.7212 7.2059,0.7212 h 707.6322 c 21.2244,0 38.3113,-17.0869 38.3113,-38.3113 v -392.1274 c 0,-21.2245 -17.0869,-38.3113 -38.3113,-38.3113 z"
   inkscape:export-filename="D:\Local_server\htdocs\YouStream v2.0\assets\move-playing-icons\reply-dark.png"
   inkscape:export-xdpi="96.000046"
   inkscape:export-ydpi="96.000046" /><rect
   style="font-variation-settings:'wght' 700;fill:#000000;stroke-width:1.44231;stroke-linecap:round;stroke-linejoin:round;paint-order:stroke fill markers"
   id="rect1197"
   width="479.65552"
   height="71.709297"
   x="4074.561"
   y="1145.9978"
   ry="35.854649"
   inkscape:export-filename="D:\Local_server\htdocs\YouStream v2.0\assets\move-playing-icons\reply-dark.png"
   inkscape:export-xdpi="96.000046"
   inkscape:export-ydpi="96.000046" /><rect
   style="font-variation-settings:'wght' 700;fill:#000000;stroke-width:1.44231;stroke-linecap:round;stroke-linejoin:round;paint-order:stroke fill markers"
   id="rect1199"
   width="479.65552"
   height="71.709297"
   x="4074.561"
   y="1247.5859"
   ry="35.854649"
   inkscape:export-filename="D:\Local_server\htdocs\YouStream v2.0\assets\move-playing-icons\reply-dark.png"
   inkscape:export-xdpi="96.000046"
   inkscape:export-ydpi="96.000046" /><rect
   style="font-variation-settings:'wght' 700;fill:#000000;stroke-width:1.26625;stroke-linecap:round;stroke-linejoin:round;paint-order:stroke fill markers"
   id="rect1201"
   width="369.70126"
   height="71.709297"
   x="4074.561"
   y="1349.1741"
   ry="35.854649"
   inkscape:export-filename="D:\Local_server\htdocs\YouStream v2.0\assets\move-playing-icons\reply-dark.png"
   inkscape:export-xdpi="96.000046"
   inkscape:export-ydpi="96.000046" /></svg>
