<?xml version="1.0" encoding="UTF-8" standalone="no"?>
<svg
   width="7256.6929"
   height="4081.8896"
   viewBox="0 0 1919.9999 1080"
   version="1.1"
   id="svg1493"
   inkscape:version="1.1 (c68e22c387, 2021-05-23)"
   sodipodi:docname="indicators.svg"
   xmlns:inkscape="http://www.inkscape.org/namespaces/inkscape"
   xmlns:sodipodi="http://sodipodi.sourceforge.net/DTD/sodipodi-0.dtd"
   xmlns="http://www.w3.org/2000/svg"
   xmlns:svg="http://www.w3.org/2000/svg"
   xmlns:rdf="http://www.w3.org/1999/02/22-rdf-syntax-ns#"
   xmlns:cc="http://creativecommons.org/ns#"
   xmlns:dc="http://purl.org/dc/elements/1.1/">
  <defs
     id="defs1487" />
  <sodipodi:namedview
     id="base"
     pagecolor="#333333"
     bordercolor="#666666"
     borderopacity="1.0"
     inkscape:pageopacity="0"
     inkscape:pageshadow="2"
     inkscape:zoom="0.24748737"
     inkscape:cx="-1301.0765"
     inkscape:cy="42.426407"
     inkscape:document-units="px"
     inkscape:current-layer="layer2"
     inkscape:document-rotation="0"
     showgrid="false"
     units="px"
     inkscape:showpageshadow="false"
     showborder="false"
     fit-margin-top="0"
     fit-margin-left="0"
     fit-margin-right="0"
     fit-margin-bottom="0"
     inkscape:pagecheckerboard="0"
     inkscape:window-width="1920"
     inkscape:window-height="1051"
     inkscape:window-x="-9"
     inkscape:window-y="-9"
     inkscape:window-maximized="1" />
  <metadata
     id="metadata1490">
    <rdf:RDF>
      <cc:Work
         rdf:about="">
        <dc:format>image/svg+xml</dc:format>
        <dc:type
           rdf:resource="http://purl.org/dc/dcmitype/StillImage" />
      </cc:Work>
    </rdf:RDF>
  </metadata>
  <g
     inkscape:groupmode="layer"
     id="layer2"
     inkscape:label="canvas">
    <path
       id="path1580"
       style="fill:#ff723f;fill-opacity:1;stroke-width:0.264583;stroke-linecap:round;stroke-linejoin:round;paint-order:stroke fill markers"
       inkscape:transform-center-y="-23.629559"
       d="m -102.05372,-161.99229 -40.92721,70.888696 -40.92774,70.888694 h 81.85495 81.85547 l -40.927733,-70.888694 z m -6.17585,48.66576 h 12.351702 v 53.539886 h -12.351702 z m 0,60.064554 h 12.351702 v 12.351699 h -12.351702 z"
       inkscape:export-filename="D:\Local_server\htdocs\YouStream v2.0\assets\model_indicators\error.png"
       inkscape:export-xdpi="124.1216"
       inkscape:export-ydpi="124.1216" />
    <path
       id="path2413"
       style="font-variation-settings:'wght' 700;fill:#65d34a;stroke-width:1.02719;stroke-linecap:round;stroke-linejoin:round;paint-order:stroke fill markers;fill-opacity:1"
       d="M 322.47461 -620.33594 A 276.00722 276.00722 0 0 0 46.466797 -344.32812 A 276.00722 276.00722 0 0 0 322.47461 -68.322266 A 276.00722 276.00722 0 0 0 598.48047 -344.32812 A 276.00722 276.00722 0 0 0 322.47461 -620.33594 z M 429.73828 -445.01367 C 429.75453 -445.02879 429.7798 -445.02879 429.79492 -445.01367 L 455.45312 -419.35547 C 455.46824 -419.33959 455.46824 -419.31395 455.45312 -419.29883 L 279.79492 -243.64258 L 279.79492 -243.64062 C 279.79394 -243.63951 279.79219 -243.64157 279.79102 -243.64062 C 279.77533 -243.6274 279.75302 -243.62626 279.73828 -243.64062 L 189.49609 -329.91406 C 189.48015 -329.92948 189.4794 -329.95559 189.49414 -329.9707 L 214.57031 -356.19922 C 214.586 -356.21547 214.61108 -356.21471 214.62695 -356.19922 L 279.19531 -294.4707 L 429.73828 -445.01367 z "
       transform="scale(0.26458333)"
       inkscape:export-filename="D:\Local_server\htdocs\YouStream v2.0\assets\model_indicators\success.png"
       inkscape:export-xdpi="139.12698"
       inkscape:export-ydpi="139.12698" />
  </g>
</svg>
