<?xml version="1.0" encoding="UTF-8" standalone="no"?>
<svg
   sodipodi:docname="user_sccout.svg"
   width="316.10492mm"
   height="316.10492mm"
   viewBox="0 0 316.10491 316.10491"
   version="1.1"
   id="svg8"
   inkscape:version="1.1 (c68e22c387, 2021-05-23)"
   xmlns:inkscape="http://www.inkscape.org/namespaces/inkscape"
   xmlns:sodipodi="http://sodipodi.sourceforge.net/DTD/sodipodi-0.dtd"
   xmlns="http://www.w3.org/2000/svg"
   xmlns:svg="http://www.w3.org/2000/svg"
   xmlns:rdf="http://www.w3.org/1999/02/22-rdf-syntax-ns#"
   xmlns:cc="http://creativecommons.org/ns#"
   xmlns:dc="http://purl.org/dc/elements/1.1/">
  <defs
     id="defs2" />
  <sodipodi:namedview
     id="base"
     pagecolor="#383838"
     bordercolor="#666666"
     borderopacity="1.0"
     inkscape:pageopacity="0"
     inkscape:pageshadow="2"
     inkscape:zoom="0.16"
     inkscape:cx="-1800"
     inkscape:cy="696.875"
     inkscape:document-units="mm"
     inkscape:current-layer="layer2"
     inkscape:document-rotation="0"
     showgrid="false"
     fit-margin-top="0"
     fit-margin-left="0"
     fit-margin-right="0"
     fit-margin-bottom="0"
     inkscape:showpageshadow="false"
     showborder="false"
     inkscape:pagecheckerboard="0"
     inkscape:window-width="1920"
     inkscape:window-height="1051"
     inkscape:window-x="-9"
     inkscape:window-y="-9"
     inkscape:window-maximized="1" />
  <metadata
     id="metadata5">
    <rdf:RDF>
      <cc:Work
         rdf:about="">
        <dc:format>image/svg+xml</dc:format>
        <dc:type
           rdf:resource="http://purl.org/dc/dcmitype/StillImage" />
        <dc:title />
      </cc:Work>
    </rdf:RDF>
  </metadata>
  <g
     transform="translate(-1.9580078e-7,12.342637)"
     inkscape:groupmode="layer"
     id="layer2"
     inkscape:label="Layer 1"
     style="opacity:0.997">
    <g
       id="g974"
       transform="translate(0,2.8955499)"
       style="fill:#ffffff"
       inkscape:export-filename="D:\Local_server\htdocs\YouStream v2.0\assets\nav_icons\user_account-dark.png"
       inkscape:export-xdpi="49.982037"
       inkscape:export-ydpi="49.982037">
      <circle
         inkscape:export-ydpi="49.982037"
         inkscape:export-xdpi="49.982037"
         r="44.601192"
         cy="60.984741"
         cx="34.017857"
         id="path9"
         style="fill:#ffffff;stroke-width:0.493204;stroke-linecap:round;paint-order:stroke fill markers" />
      <path
         inkscape:export-ydpi="49.982037"
         inkscape:export-xdpi="49.982037"
         transform="matrix(0.26458333,0,0,0.26458333,1.9580078e-7,-12.342637)"
         d="M 127.91992,488.57227 A 294.28572,294.28572 0 0 0 -159.5332,722.85742 h 576.20703 a 294.28572,294.28572 0 0 0 -288.10156,-234.28515 294.28572,294.28572 0 0 0 -0.65235,0 z"
         style="fill:#ffffff;stroke-width:3.25424;stroke-linecap:round;paint-order:stroke fill markers"
         id="circle11" />
    </g>
    <g
       id="g4617"
       transform="translate(0,3.3872299)"
       inkscape:export-filename="D:\Local_server\htdocs\YouStream v2.0\assets\switch_to_light_theme.png"
       inkscape:export-xdpi="49.982037"
       inkscape:export-ydpi="49.982037"
       style="fill:#ffffff">
      <circle
         style="fill:#ffffff;fill-opacity:1;stroke:#000000;stroke-width:0.15154;stroke-linecap:round;stroke-linejoin:round;paint-order:stroke fill markers"
         id="path890"
         cx="317.87802"
         cy="97.156883"
         r="47.626965" />
      <path
         id="rect2287"
         style="fill:#ffffff;stroke-width:0.226028;stroke-linecap:round;stroke-linejoin:round;paint-order:stroke fill markers"
         d="m 312.51841,15.891815 c -0.006,0 -0.0109,0.005 -0.0109,0.01087 v 27.882426 a 53.674817,53.674817 0 0 1 5.37068,-0.302798 53.674817,53.674817 0 0 1 5.37018,0.270707 V 15.902686 c 0,-0.0059 -0.005,-0.01087 -0.0109,-0.01087 z" />
      <path
         id="rect2449"
         style="fill:#ffffff;stroke-width:0.226028;stroke-linecap:round;stroke-linejoin:round;paint-order:stroke fill markers"
         d="m 312.50754,150.52852 v 27.88294 c 0,0.006 0.005,0.0103 0.0109,0.0103 h 10.71909 c 0.006,0 0.0109,-0.004 0.0109,-0.0103 v -27.88294 a 53.674817,53.674817 0 0 1 -5.37018,0.30331 53.674817,53.674817 0 0 1 -5.37068,-0.30331 z" />
      <path
         id="rect2565"
         style="fill:#ffffff;stroke-width:0.226028;stroke-linecap:round;stroke-linejoin:round;paint-order:stroke fill markers"
         d="m 263.6403,36.416467 c -0.004,-0.0039 -0.0108,-0.0038 -0.015,5.17e-4 l -7.50736,7.651259 c -0.004,0.004 -0.004,0.0108 5.1e-4,0.01501 l 19.88126,19.507556 a 53.674817,53.674817 0 0 1 7.54101,-7.648672 z" />
      <path
         id="rect2567"
         style="fill:#ffffff;stroke-width:0.226028;stroke-linecap:round;stroke-linejoin:round;paint-order:stroke fill markers"
         d="m 359.75569,130.72334 a 53.674817,53.674817 0 0 1 -7.54049,7.64815 l 19.90042,19.52567 c 0.004,0.004 0.0108,0.004 0.015,0 l 7.50738,-7.65126 c 0.004,-0.004 0.004,-0.0108 0,-0.015 z" />
      <path
         id="rect2569"
         style="fill:#ffffff;stroke-width:0.226028;stroke-linecap:round;stroke-linejoin:round;paint-order:stroke fill markers"
         d="m 236.63315,91.64767 c -0.006,-1.1e-5 -0.0109,0.005 -0.0109,0.01087 l -0.0181,10.71911 c -1e-5,0.006 0.004,0.0109 0.0103,0.0109 l 27.8814,0.0476 a 53.674817,53.674817 0 0 1 -0.29245,-5.279068 53.674817,53.674817 0 0 1 0.31315,-5.461782 z" />
      <path
         id="rect2571"
         style="fill:#ffffff;stroke-width:0.226028;stroke-linecap:round;stroke-linejoin:round;paint-order:stroke fill markers"
         d="m 371.29005,91.878005 a 53.674817,53.674817 0 0 1 0.26292,5.279068 53.674817,53.674817 0 0 1 -0.31367,5.461267 l 27.88398,0.0476 c 0.006,10e-6 0.0104,-0.004 0.0104,-0.0104 l 0.0186,-10.719633 c 3e-5,-0.0059 -0.005,-0.01034 -0.0109,-0.01035 z" />
      <path
         id="rect2573"
         style="fill:#ffffff;stroke-width:0.226028;stroke-linecap:round;stroke-linejoin:round;paint-order:stroke fill markers"
         d="m 276.60374,131.4247 -19.55878,19.86573 c -0.004,0.004 -0.004,0.0108 5.2e-4,0.015 l 7.63831,7.52082 c 0.004,0.004 0.0109,0.004 0.015,-5.2e-4 L 284.24258,138.975 a 53.674817,53.674817 0 0 1 -7.63886,-7.55032 z" />
      <path
         id="rect2575"
         style="fill:#ffffff;stroke-width:0.226028;stroke-linecap:round;stroke-linejoin:round;paint-order:stroke fill markers"
         d="m 371.05712,35.48788 -19.54068,19.847623 a 53.674817,53.674817 0 0 1 7.65539,7.533761 l 19.53913,-19.846069 c 0.004,-0.004 0.004,-0.01079 0,-0.01501 l -7.63884,-7.520304 c -0.004,-0.0039 -0.0108,-0.0043 -0.015,-1e-6 z" />
    </g>
    <path
       id="path2806"
       style="fill:#1a1a1a;stroke-width:0.261984;stroke-linecap:round;stroke-linejoin:round;paint-order:stroke fill markers"
       d="m 667.68392,19.279018 a 85.331963,85.331963 0 0 1 11.67492,43.069437 85.331963,85.331963 0 0 1 -85.33207,85.331535 85.331963,85.331963 0 0 1 -36.35951,-8.16074 85.331963,85.331963 0 0 0 73.66309,42.28977 85.331963,85.331963 0 0 0 85.33209,-85.331534 85.331963,85.331963 0 0 0 -48.97852,-77.198468 z"
       inkscape:export-filename="D:\Local_server\htdocs\YouStream v2.0\assets\switch_to_dark_theme.png"
       inkscape:export-xdpi="49.982037"
       inkscape:export-ydpi="49.982037" />
    <path
       style="fill:#ffffff;stroke-width:0.540426"
       d="m -328.52798,167.08433 -11.88149,-11.8907 28.36714,-28.371 28.36715,-28.371004 -28.36869,-28.372546 -28.36869,-28.372547 12.02254,-12.022538 12.02254,-12.022538 28.37254,28.368686 28.37255,28.368688 28.37255,-28.368688 28.37254,-28.368686 12.02253,12.022529 12.02253,12.022528 -27.96529,27.969167 c -15.3809,15.383044 -27.96529,28.332218 -27.96529,28.775945 0,0.443727 12.58439,13.392904 27.96529,28.775944 l 27.96529,27.96917 -12.02253,12.02253 -12.02253,12.02253 -28.37254,-28.36869 -28.37255,-28.36869 -28.23915,28.23531 c -15.53153,15.52942 -28.36195,28.2353 -28.51205,28.2353 -0.1501,0 -5.61958,-5.35081 -12.15439,-11.8907 z"
       id="path902"
       inkscape:export-filename="D:\Local_server\htdocs\YouStream v2.0\assets\nav_icons\close-dark.png"
       inkscape:export-xdpi="50.303162"
       inkscape:export-ydpi="50.303162" />
  </g>
</svg>
